<svg width="130px" height="130px" xmlns="http://www.w3.org/2000/svg" viewBox="185.3625 -71.79999999999998 129.27499999999998 293.59999999999997" style="background: none;" preserveAspectRatio="xMidYMid"><defs><filter id="editing-lego" x="-100%" y="-100%" width="300%" height="300%"><feFlood flood-color="#038b00" result="f1"></feFlood><feFlood flood-color="#86d78a" result="f2"></feFlood><feMorphology operator="dilate" radius="3" in="SourceAlpha"></feMorphology><feConvolveMatrix order="5,5" divisor="1" result="cm1" kernelMatrix="0 1 1 1 0  1 0 0 0 1  1 0 0 0 1  1 0 0 0 1  0 1 1 1 0"></feConvolveMatrix><feComposite operator="in" in="f1" in2="cm1" result="c1"></feComposite><feMorphology operator="dilate" radius="3"></feMorphology><feConvolveMatrix order="5,5" divisor="1" result="cm2" kernelMatrix="0 1 1 1 0  1 0 0 0 1  1 0 0 0 1  1 0 0 0 1  0 1 1 1 0"></feConvolveMatrix><feComposite operator="in" in="f2" in2="cm2" result="c2"></feComposite><feMerge><feMergeNode in="c2"></feMergeNode><feMergeNode in="c1"></feMergeNode><feMergeNode in="SourceGraphic"></feMergeNode></feMerge></filter></defs><g filter="url(#editing-lego)"><g transform="translate(206.45001029968262, 127.58999824523926)"><path d="M68.39-64.62L68.63-45.20L68.63-45.20Q64.86-45.60 58.88-45.60L58.88-45.60L35.06-45.60L35.06 0L13.52 0L13.52-105.11L13.52-105.11Q15.64-104.95 18.40-104.87L18.40-104.87L24.21-104.71L24.21-104.71Q30.19-104.56 36.63-104.56L36.63-104.56L36.63-104.56Q55.97-104.56 73.58-105.18L73.58-105.18L73.58-105.18Q72.72-98.27 72.72-86.71L72.72-86.71L72.72-86.71Q72.72-85.45 72.87-84.82L72.87-84.82L72.72-84.59L72.72-84.59Q68.55-85.77 61.08-85.77L61.08-85.77L35.06-85.77L35.06-64.15L58.02-64.15L58.02-64.15Q66.66-64.15 68.39-64.62L68.39-64.62Z" fill="#ffffff"></path></g></g><style>text {
  font-size: 64px;
  font-family: Arial Black;
  dominant-baseline: central;
  text-anchor: middle;
}</style></svg>